# xmcd
#
# Track frame offsets: 
#        150
#        14507
#        30192
#        44752
#        60447
#        73552
#        88202
#        100347
#        119497
#        136192
#        153375
#        164582
#        178315
#        195127
#        211240
#        225430
#        242342
#        258345
#        275335
#        293050
#
# Disc length: 4086 seconds
#
# Revision: 5
# Processed by: cddbd v1.5.2PL0 Copyright (c) Steve Scherf et al.
# Submitted via: ExactAudioCopy v1.0b3
#
DISCID=120ff414
DTITLE=Judds, The - The Essential Judds
DYEAR=1995
DGENRE=Country
TTITLE0=Had A Dream (From The Heart)
TTITLE1=John Deere Tractor (Original Version)
TTITLE2=Mama He's Crazy
TTITLE3=Why Not Me
TTITLE4=Girls' Night Out
TTITLE5=Lazy Country Evening
TTITLE6=Rockin' With The Rhythm Of The Rain
TTITLE7=Grandpa (Tell Me 'Bout The Good Old Days)
TTITLE8=Turn It Loose
TTITLE9=The Sweetest Gift
TTITLE10=Don't Be Cruel
TTITLE11=Working In The Coal Mine
TTITLE12=Old Pictures
TTITLE13=Guardian Angels
TTITLE14=Give A Little Love To Me
TTITLE15=More Fun Than The Law Allows
TTITLE16=One Little Teardrop
TTITLE17=Born To Be Blue (Single Version)
TTITLE18=Love Can Build A Bridge
TTITLE19=Don't You Hear Jerusalem Moan
EXTD=
EXTT0=
EXTT1=
EXTT2=
EXTT3=
EXTT4=
EXTT5=
EXTT6=
EXTT7=
EXTT8=
EXTT9=
EXTT10=
EXTT11=
EXTT12=
EXTT13=
EXTT14=
EXTT15=
EXTT16=
EXTT17=
EXTT18=
EXTT19=
PLAYORDER=
